# xmcd CD database file
#
# Track frame offsets:
#	150
#	21738
#	35953
#	53942
#	64758
#	75078
#	87706
#	104962
#	122663
#	137803
#	155557
#	168303
#	181648
#	197268
#	212678
#
# Disc length: 3062 seconds
#
# Revision: 4
# Processed by: cddbd v1.5.2PL0 Copyright (c) Steve Scherf et al.
# Submitted via: CDex 2.21
#
DISCID=d50bf40f
DTITLE=Miranda Lambert - Revolution
DYEAR=2009
DGENRE=Country
TTITLE0=White Liar
TTITLE1=Only Prettier
TTITLE2=Dead Flowers
TTITLE3=Me and Your Cigarettes
TTITLE4=Maintain the Pain
TTITLE5=Airstream Song
TTITLE6=Makin' Plans
TTITLE7=Time to Get a Gun
TTITLE8=Somewhere Trouble Don't Go
TTITLE9=The House That Built Me
TTITLE10=Love Song
TTITLE11=Heart Like Mine
TTITLE12=Sin for a Sin
TTITLE13=That's the Way That the World Goes 'Round
TTITLE14=Virginia Bluebell
EXTD=YEAR: 2009
EXTT0=
EXTT1=
EXTT2=
EXTT3=
EXTT4=
EXTT5=
EXTT6=
EXTT7=
EXTT8=
EXTT9=
EXTT10=
EXTT11=
EXTT12=
EXTT13=
EXTT14=
PLAYORDER=
